<?xml version="1.0" standalone="yes"?>
<svg width="124" height="132">
<path style="fill:#000000; stroke:none;" d="M0 0L26 39L86 127L87 127C94.7012 113.455 98.5567 95.9412 102.859 81C104.482 75.3628 109.057 67.9781 103 64L88 102L51.3627 32.1042L22 12.3441L0 0z"/>
<path style="fill:#3b525d; stroke:none;" d="M3 0L3 1L8 4L8 0L3 0z"/>
<path style="fill:#9bc7dc; stroke:none;" d="M8 0C8.96489 5.96738 14.2669 8.04968 19 11.0532C28.6582 17.1821 40.3508 22.7874 48.8951 30.3789C53.6109 34.5688 54.2727 42.8435 61 44L70 54L72 53C75.3037 56.7807 84.2601 55 89 55C92.5008 55 98.4391 56.0779 101.411 53.821C103.555 52.1935 103.632 48.8103 105.455 46.7994C114.912 36.3705 123.952 14.1155 124 0L8 0z"/>
<path style="fill:#677679; stroke:none;" d="M0 1L1.3179 41.8117L7.77161 51.0185L8 89L0 88L0 90L19 90L19 91L12 92L12 93L40 93L40 92L37 91L37 90L40 90L40 89L33 88L33 87L49 85C50.6381 89.9315 54.6591 88.5453 59 88L48 70L47 70C47 83.5505 39.6844 86.976 38 72L34 73L34 66C43.5412 67.6738 41.7634 61.096 37.6551 55C30.1998 43.9377 22.5035 33.0306 15 22L14 22L14 57L19 57L19 88L11 88L11 87L17 86L17 85L9 85L8 17L6 18C5.99541 11.0747 4.93159 6.1545 0 1z"/>
<path style="fill:#8a9a9c; stroke:none;" d="M122 8L117.738 22.0039L119 38C126.04 35.6635 124 14.7099 124 8L122 8z"/>
<path style="fill:#364b4f; stroke:none;" d="M6 10L6 18L7 18L6 10z"/>
<path style="fill:#88a1a8; stroke:none;" d="M8 13C8 22.3458 4.11489 43.129 13 49C13 38.2431 16.553 20.9316 8 13z"/>
<path style="fill:#7f8c8f; stroke:none;" d="M13 20L13 49L10 45L9 45L9 85L17 85L17 86L11 87L11 88L19 88L19 57L14 57C14 46.3512 17.1113 29.7978 13 20z"/>
<path style="fill:#9cb0b3; stroke:none;" d="M123 21C123 26.8122 124.799 34.802 119 38L118 22C113.326 26.078 107.41 44.3784 107.112 50.9853C106.971 54.1141 108.853 56.9074 108.597 59.9498C108.015 66.8782 104.037 73.9765 103 81L110 69L116 80L117 80L118 69C109.354 66.924 112.865 58.6139 122 64L122 65C117.771 69.141 119 75.4395 119 81L120 81L121 69L122 69L123 84L124 84L124 41L123 21z"/>
<path style="fill:#566366; stroke:none;" d="M0 30L0 88L8 89L7.56636 49.1296L1.3179 40.9059L0 30z"/>
<path style="fill:#80abc0; stroke:none;" d="M58 44L67 63C72.6258 61.7227 79.0953 62.9467 81 69C88.3311 69 99.3396 71.6946 103 64C112.015 65.6053 107.296 50.5776 108 45C103.514 47.032 104.33 51.4309 100.686 53.821C95.6528 57.1222 76.5959 56.4818 72 53L70 54L61 44L58 44z"/>
<path style="fill:#000000; stroke:none;" d="M122 65C111.297 51.4997 109.379 76.5277 122 65z"/>
<path style="fill:#6e8f9e; stroke:none;" d="M68 62L76 81L96.2978 79.3966L101 69L81 69C79.9173 62.7408 73.4696 62.0604 68 62z"/>
<path style="fill:#8a999e; stroke:none;" d="M42 63C39.8366 66.4423 37.8866 66.3693 34 66L34 73L38 72C38.1701 74.5069 37.6469 77.4641 38.3287 79.8812C39.2349 83.0936 44.3726 85.3154 46.2577 81.6782C49.3051 75.7983 46.4184 67.0974 42 63z"/>
<path style="fill:#889295; stroke:none;" d="M118 68L119 84L112 79L111 84L124 86L122 69L121 69L120 81L119 81L118 68z"/>
<path style="fill:#000000; stroke:none;" d="M109 69L91 125C107.885 114.438 109.684 97.2289 112 79L119 84L109 69z"/>
<path style="fill:#70716c; stroke:none;" d="M76 81L87 102L88 102L96 81L76 81z"/>
<path style="fill:#74776f; stroke:none;" d="M103 81L87 127L86 127C83.4525 121.615 80.3183 115.022 74 114L76 120L75 120L71 119L72 114L67 120L66 120L63 113L61 118C58.6038 117.425 58.513 117.525 58 120L57 120C57 116.637 57.7158 113.796 54 113L55 118L48 120L47 117L44 119C44.839 115.662 44.4563 113.927 41 113L43 120L42 120L39 118C41.7797 122.295 44.9234 125.73 50 127L49 123L51 132L124 132L124 116C108.877 115.875 103.126 114.407 91 125L105 81L103 81z"/>
<path style="fill:#75766c; stroke:none;" d="M111 84L108 102L124 102L124 86L111 84z"/>
<path style="fill:#696a62; stroke:none;" d="M33 87L33 88L40 89L40 90L37 90L37 91L40 92L40 93L0 93L0 105L18 105C13.2892 110.098 6.43593 109 0 109L0 110C8.70131 110 18.3099 111.163 26.9105 109.856C37.6657 108.221 45.2595 103.205 57 106L52 110L75 111L60.6744 89.6073L49 85L33 87z"/>
<path style="fill:#363a37; stroke:none;" d="M0 90L0 93L19 91L0 90z"/>
<path style="fill:#86867e; stroke:none;" d="M108 102L105 111L124 111L124 102L108 102z"/>
<path style="fill:#7a7c76; stroke:none;" d="M0 105L0 109C5.89535 109 14.5063 110.711 18 105L0 105z"/>
<path style="fill:#7f8279; stroke:none;" d="M30 110C39.0201 110 49.5251 111.956 57 106C50.1493 103.975 34.0519 103.064 30 110z"/>
<path style="fill:#555650; stroke:none;" d="M0 110L0 113C5.10534 113.004 8.41243 113.084 12 117L13 113C17.386 113 22.3854 111.967 25 116L28 116L31 113L31 117L32 117L34 113L35 117L36 117C38.6221 112.512 42.7436 112.637 47 115C52.3752 112.131 62.6542 110.932 66 117L67 117L68 113L77 114C73.5692 108.707 62.7201 110 57 110L0 110z"/>
<path style="fill:#5d5e54; stroke:none;" d="M103 115L124 116L124 111C117.578 111 106.536 108.588 103 115z"/>
<path style="fill:#666965; stroke:none;" d="M0 113L0 132L51 132C50.1686 127.033 47.3944 127.495 43 128C43.2347 123.883 42.2708 120.814 38 120L40 113L36 120L35 120L34 115L33 115L32 120L30 113L29 113L29 120L28 120L28 117L25 117L25 120L24 120L24 113L22 115L19 114L19 115L23 117L19 120L19 119L21 117L18 113L17 113L16 119L15 119L16 113L15 113L12 120C8.70213 113.92 6.92374 113.005 0 113z"/>
<path style="fill:#000000; stroke:none;" d="M9 113L12 120L15 113L12 117L9 113M16 113L15 119L16 119L16 113M18 113L21 117L19 119L19 120L23 117L19 115L19 114L22 115L18 113M24 113L24 120L25 120L25 117L28 117L28 120L29 120L29 113L28 113L28 116L25 116L24 113M30 113L30 117L31 117L30 113M33 113L35 120L36 120L37 114L36 114L36 117L35 117L33 113M40 113L38 120L39 120L42 120L43 120L40 113M44 113L44 119L47 117L48 120L55 118L53 113L51 119L49 113L47 115L44 113z"/>
<path style="fill:#6f726a; stroke:none;" d="M51 119L53 113C49.0983 113.679 47.3845 116.369 51 119z"/>
<path style="fill:#000000; stroke:none;" d="M57 113L57 120L58 120L58 117L61 118L62 113L57 113M64 113L65 117L66 117L64 113M68 113L66 120L67 120L68 113M73 113L71 119L75 120L76 120L73 113z"/>
<path style="fill:#71726a; stroke:none;" d="M58 114L58 116L61 116L61 114L58 114z"/>
<path style="fill:#000000; stroke:none;" d="M32 115L31 120L32 120L32 115z"/>
<path style="fill:#6d6f69; stroke:none;" d="M40.3333 115.667L40.6667 116.333L40.3333 115.667z"/>
<path style="fill:#6f726a; stroke:none;" d="M53 115L52 117L54 117L53 115z"/>
<path style="fill:#76776f; stroke:none;" d="M73.3333 115.667L73.6667 116.333L73.3333 115.667z"/>
<path style="fill:#000000; stroke:none;" d="M18 118L19 119L18 118M55.3333 118.667L55.6667 119.333L55.3333 118.667M61.3333 118.667L61.6667 119.333L61.3333 118.667M64 118L65 119L64 118M35 123L35 128L36 128L35 123M37 123L37 128L38 128L39 125L42 128L42 123L41 123L40 126L37 123M43.3333 123.667L43.6667 124.333L43.3333 123.667M46 123L47 124L46 123M49 123L50 128L51 128L49 123M53 123L53 128L54 128L53 123M56 123L57 128L58 128L56 123M60 123C60.832 127.992 64.168 127.992 65 123L64 123L64 127L61 127L60 123M67 123L67 128C69.0339 126.231 69.0339 124.769 67 123M71 123L71 128L75 128L75 127L72 127L72 126L75 126L75 125L71 123M77 123L80 126L80 127L76 126L76 127L81 127L81 126L77 123M79 123L80 124L79 123M43 128L47 125L43 128z"/>
<path style="fill:#6c6f69; stroke:none;" d="M44.6667 126.333L45.3333 126.667L44.6667 126.333z"/>
</svg>
