<?xml version="1.0" encoding="utf-8"?>
<!-- Generator: Adobe Illustrator 14.0.0, SVG Export Plug-In . SVG Version: 6.00 Build 43363)  -->
<!DOCTYPE svg PUBLIC "-//W3C//DTD SVG 1.1//EN" "http://www.w3.org/Graphics/SVG/1.1/DTD/svg11.dtd">
<svg version="1.1" id="aol" xmlns="http://www.w3.org/2000/svg" xmlns:xlink="http://www.w3.org/1999/xlink" x="0px" y="0px"
	 width="400px" height="300px" viewBox="0 0 400 300" enable-background="new 0 0 400 300" xml:space="preserve">
<path id="o" d="M215.233,112.227c-27.3,0-47.957,21.209-47.957,47.483c0,27.695,21.527,47.479,47.957,47.479
	c26.434,0,47.879-19.784,47.879-47.479C263.112,133.435,242.536,112.227,215.233,112.227z M215.233,182.104
	c-11.789,0-21.446-10.051-21.446-22.395c0-12.426,9.657-22.396,21.446-22.396c11.792-0.08,21.446,9.971,21.446,22.396
	C236.679,172.055,227.025,182.104,215.233,182.104z"/>
<path id="dot" d="M335.229,173.949c-9.182,0-16.618,7.438-16.618,16.619c0,9.179,7.438,16.617,16.618,16.617
	c9.18,0,16.617-7.438,16.617-16.617C351.846,181.387,344.409,173.949,335.229,173.949z"/>
<rect id="l" x="277.357" y="86.111" width="26.115" height="117.91"/>
<path id="a" d="M95.342,86.111l-47.482,117.91h33.238l5.539-16.616h41.151l5.539,16.616h33.238l-46.691-117.91H95.342z
	 M95.342,162.874l12.267-39.569l12.266,39.569H95.342z"/>
</svg>
