<?xml version="1.0" standalone="no"?>
<!DOCTYPE svg PUBLIC "-//W3C//DTD SVG 20010904//EN"
 "http://www.w3.org/TR/2001/REC-SVG-20010904/DTD/svg10.dtd">
<svg version="1.0" xmlns="http://www.w3.org/2000/svg"
 width="124.000000pt" height="132.000000pt" viewBox="0 0 124.000000 132.000000"
 preserveAspectRatio="xMidYMid meet">

<g transform="translate(0.000000,132.000000) scale(0.100000,-0.100000)"
fill="#000000" stroke="none">
<path d="M0 660 l0 -660 416 0 c391 0 415 1 410 18 -2 9 -7 37 -10 62 -7 49
-10 50 37 -14 14 -19 15 -19 31 10 l17 29 -4 -35 c-2 -19 -7 -43 -12 -53 -7
-16 5 -17 174 -17 l181 0 0 109 0 110 -52 6 c-29 4 -66 13 -83 20 -29 13 -29
13 30 14 88 2 108 21 23 21 -39 0 -68 4 -68 10 0 6 32 10 75 10 l76 0 -3 67
-3 68 -55 2 c-30 1 -58 2 -62 2 -10 1 -10 37 -2 69 l7 23 28 -27 c16 -15 31
-25 33 -23 5 4 -66 123 -84 143 -5 4 -19 -25 -31 -65 -27 -86 -27 -85 -38 -73
-6 5 0 38 14 83 24 75 24 95 -1 105 -16 6 -22 -4 -58 -100 l-27 -71 -97 1 -98
1 -124 248 c-68 137 -134 256 -146 265 -12 9 -111 73 -218 140 -143 91 -196
129 -196 143 0 16 -7 19 -40 19 l-40 0 0 -660z m131 463 c46 -70 49 -86 27
-168 -6 -22 -11 -76 -11 -120 -1 -75 0 -80 20 -83 28 -4 42 -66 32 -132 -5
-25 -8 -66 -8 -92 -1 -52 -6 -59 -36 -48 -21 7 -22 10 -24 60 -2 48 -21 35
-21 -14 0 -25 -4 -48 -10 -51 -6 -4 -10 16 -10 52 -1 103 -10 426 -15 500 -4
62 2 163 10 163 2 0 22 -30 46 -67z m149 -270 c0 -29 -4 -53 -10 -53 -5 0 -10
4 -10 10 0 5 -7 7 -15 4 -17 -7 -21 3 -30 59 -6 46 1 63 21 46 11 -9 14 -8 14
7 1 18 1 18 15 0 9 -12 15 -42 15 -73z m51 -27 c8 -13 8 -17 0 -12 -6 4 -11 1
-11 -6 0 -9 -3 -9 -10 2 -5 8 -10 26 -10 40 0 26 5 23 31 -24z m142 -202 c29
-40 37 -61 37 -93 0 -25 -4 -40 -10 -36 -5 3 -7 20 -3 37 4 21 3 29 -5 24 -5
-3 -13 0 -15 6 -3 7 -6 -6 -6 -30 -1 -35 -5 -44 -23 -51 -19 -7 -24 -5 -28 13
-5 16 -8 18 -14 7 -16 -25 -34 14 -29 62 2 24 1 37 -4 30 -14 -20 -35 2 -31
33 3 26 7 29 35 28 24 -1 34 4 39 19 7 21 7 22 57 -49z m-136 -59 c12 -9 14
-22 9 -57 -8 -56 -31 -70 -40 -26 -8 43 -8 173 2 182 4 4 8 -14 10 -40 2 -29
9 -52 19 -59z m-157 -115 c0 -5 -14 -10 -31 -10 -17 0 -28 4 -24 10 3 6 17 10
31 10 13 0 24 -4 24 -10z m713 -120 c-8 -29 -20 -34 -32 -12 -12 22 -5 32 20
32 12 0 16 -6 12 -20z m-388 -77 c-16 -3 -34 -8 -40 -13 -18 -14 -73 -22 -80
-11 -10 17 34 30 95 29 32 -1 42 -3 25 -5z"/>
<path d="M1120 700 c-9 -16 -7 -27 10 -50 12 -17 25 -30 29 -30 4 0 20 13 35
29 l27 28 -27 22 c-34 26 -60 27 -74 1z"/>
</g>
</svg>
