<?xml version="1.0" encoding="utf-8"?>
<!-- Generator: Adobe Illustrator 23.0.3, SVG Export Plug-In . SVG Version: 6.00 Build 0)  -->
<svg version="1.1" id="logosvg.com" xmlns="http://www.w3.org/2000/svg" xmlns:xlink="http://www.w3.org/1999/xlink" x="0px"
	 y="0px" viewBox="0 0 400 300" style="enable-background:new 0 0 400 300;" xml:space="preserve">
<style type="text/css">
	.st0{fill:#005288;}
	.st1{fill:#A7A9AC;}
</style>
<path id="blue" class="st0" d="M97.9,134.9H65.6l-1.2,0.9v28.8h9v-10.8l0.9-0.8h23.7c6,0,8.8-1.6,8.8-5.7v-6.6
	C106.7,136.5,103.9,134.9,97.9,134.9 M97.9,145.5c0,1.9-1.3,2.4-4.1,2.4H74.3l-1-0.9v-6.2l0.9-0.8h19.6c2.8,0,4.1,0.4,4.1,2.4V145.5
	z M123.1,140.3l7.7,11.3l-0.4,1.1h-17l-4.3,5.3h25.4l1.8,1.1l3.9,5.4h10.2l-22.5-30 M224.9,158.7v-8l0.9-0.8H243v-5.1h-27.2v19.7
	h40.1v-5.1h-30 M215.8,134.9h40.5v5.6h-40.5V134.9z M170.6,140.2h32.6c-0.5-4.1-3.1-5.3-9.6-5.3h-23.4c-7.4,0-9.7,1.4-9.7,7v15.6
	c0,5.6,2.3,7,9.7,7h23.4c6.6,0,9.2-1.2,9.3-5.5h-32.3l-1-0.9v-17.3 M42.6,146.4H18.9l-0.7-0.8v-5.1l0.7-0.5h32l0.4-1.1
	c-1.1-2.8-3.9-4.1-9.1-4.1H20c-7.4,0-9.7,1.4-9.7,7v3.3c0,5.6,2.4,7,9.7,7h23.7l0.7,0.7v5.3l-0.6,0.8H16.7v0H9.6
	c0,0-0.8,0.4-0.8,0.6c0.6,3.9,3.3,5,9.6,5h24.2c7.4,0,9.8-1.4,9.8-7v-4.1C52.4,147.9,50,146.4,42.6,146.4 M281.7,134.7h-13.3
	l-0.7,1.4l14.8,10.8c2.8-1.6,5.8-3.3,9.2-4.9 M293.7,155.1l13,9.5h13.5l0.6-1.3l-19.4-14.2C298.7,151,296.2,153,293.7,155.1"/>
<path id="grey" class="st1" d="M279.8,164.5h-12l-1-1.6c8.2-7.9,44.8-41.8,124.5-45.5C391.2,117.5,324.3,119.7,279.8,164.5"/>
</svg>
