<?xml version="1.0" encoding="utf-8"?>
<!-- Generator: Adobe Illustrator 23.0.3, SVG Export Plug-In . SVG Version: 6.00 Build 0)  -->
<svg version="1.1" id="logosvg.com" xmlns="http://www.w3.org/2000/svg" xmlns:xlink="http://www.w3.org/1999/xlink" x="0px"
	 y="0px" viewBox="0 0 400 300" style="enable-background:new 0 0 400 300;" xml:space="preserve">
<path id="logo" d="M193.72,107.023c0.766,0.767,1.196,1.196,1.961,1.962V149.8l-23.641,23.648v17.566
	c-0.766,0.766-1.195,1.195-1.961,1.961h-33.938c-0.766-0.767-1.195-1.196-1.961-1.961V173.65l-23.249-23.457v-41.208
	c0.766-0.765,1.195-1.195,1.961-1.962h33.937l1.961,1.962V149.8h8.637v-40.816c0.766-0.765,1.195-1.195,1.961-1.962L193.72,107.023
	L193.72,107.023z M373.038,107.024h-34.331c-0.766,0.766-1.195,1.197-1.961,1.962v40.816h-8.637v-40.816
	c-0.766-0.766-1.195-1.196-1.961-1.962H292.21c-0.766,0.766-1.196,1.197-1.962,1.962v41.207l23.249,23.457v17.364
	c0.766,0.766,1.195,1.196,1.961,1.962h33.938c0.766-0.766,1.196-1.196,1.961-1.962V173.45L375,149.802v-40.815
	C374.233,108.221,373.804,107.79,373.038,107.024z M63.646,149.8v-8.437h36.684c0.767-0.766,1.195-1.196,1.961-1.963v-30.415
	c-0.765-0.766-1.194-1.195-1.961-1.962H42.165L25,124.194v23.65c0.766,0.767,1.196,1.196,1.961,1.956L63.646,149.8L63.646,149.8z
	 M100.331,149.801H63.646v8.437H26.962l0,0c-0.766,0.766-1.196,1.196-1.961,1.962v30.813c0.766,0.766,1.195,1.196,1.961,1.962
	h58.165l17.165-17.17v-24.042C101.526,150.996,101.097,150.566,100.331,149.801z M279.649,107.024h-58.165l-17.165,17.171v66.82
	c0.766,0.766,1.196,1.196,1.961,1.962h33.938c0.766-0.766,1.195-1.196,1.961-1.962v-10.694h37.469
	c0.766-0.768,1.195-1.197,1.961-1.963v-26.594c-0.766-0.767-1.195-1.196-1.961-1.962h-37.469v-8.438h37.469
	c0.766-0.766,1.195-1.196,1.961-1.962v-30.415C280.844,108.221,280.416,107.79,279.649,107.024z"/>
</svg>
